<svg width="1663" height="331" viewBox="0 0 1663 331" fill="none" xmlns="http://www.w3.org/2000/svg">
<path d="M1471.99 1C1503.8 1 1531.48 3.25034 1555.04 7.74219L1555.05 7.74414L1555.06 7.74512C1579.11 11.8893 1598.76 18.9594 1614.03 28.918L1614.04 28.9258C1629.81 38.8827 1641.5 51.9139 1649.13 68.0273L1649.13 68.0391L1649.14 68.0498C1657.26 84.1691 1661.36 103.939 1661.36 127.399C1661.36 152.574 1656.5 177.235 1646.79 201.387L1646.79 201.396L1646.78 201.403C1637.75 225.12 1622.51 246.357 1601.08 265.111L1600.05 266.003C1578.42 284.666 1550.07 299.852 1514.98 311.536L1513.3 312.088C1477.98 323.486 1434.16 329.2 1381.81 329.2H1161.98L1265.39 1H1471.99ZM961.68 1C993.492 1.00001 1021.17 3.25037 1044.73 7.74219L1044.74 7.74414L1044.75 7.74512C1068.81 11.8893 1088.45 18.9594 1103.72 28.918L1103.73 28.9258C1119.51 38.8825 1131.19 51.9136 1138.81 68.0273L1138.82 68.0391L1139.2 68.8086C1147.09 84.7878 1151.05 104.305 1151.05 127.399C1151.05 152.574 1146.2 177.235 1136.48 201.387L1136.47 201.396L1136.47 201.403C1127.29 225.497 1111.72 247.032 1089.74 266.003C1067.77 284.961 1038.87 300.332 1002.99 312.088C967.668 323.486 923.848 329.2 871.504 329.2H651.667L755.086 1H961.68ZM299.705 1L323.485 186.287L323.787 188.636L325.261 186.782L472.94 1H669.17L564.985 329.2H395.978L466.475 105.86L464.745 104.929L282.382 329.2H178.901L144.345 97.6123L142.403 97.457L68.6348 329.2H1.36328L104.781 1H299.705ZM909.858 35.0557L827.391 293.496L826.975 294.8H861.484C878.637 294.8 893.747 290.061 906.775 280.568L906.774 280.567C920.239 270.784 931.629 258.557 940.942 243.896C950.746 228.926 958.741 212.569 964.93 194.827C971.415 177.327 976.452 160.47 980.041 144.258L980.384 142.691C984.493 126.049 987.324 111.123 988.872 97.9141C990.928 84.7407 991.967 75.3118 991.967 69.6797C991.967 58.7206 988.555 50.1073 981.628 43.9863C975.164 37.4718 963.779 34.3604 947.807 34.3604H910.081L909.858 35.0557ZM1420.17 35.0557L1337.7 293.496L1337.28 294.8H1371.79C1388.95 294.8 1404.05 290.06 1417.08 280.567C1430.54 270.787 1441.93 258.563 1451.24 243.907L1451.24 243.908C1461.05 228.931 1469.05 212.562 1475.24 194.809C1481.73 177.315 1486.76 160.464 1490.35 144.258L1490.7 142.691C1494.8 126.049 1497.64 111.122 1499.19 97.9131C1501.23 84.7414 1502.28 75.312 1502.28 69.6797C1502.28 58.7206 1498.86 50.1086 1491.94 43.9883C1485.48 37.4724 1474.09 34.3604 1458.11 34.3604H1420.39L1420.17 35.0557Z" fill="white" stroke="#00FF44" stroke-width="2"/>
</svg>
